<?xml version="1.0" standalone="no"?>
<!DOCTYPE svg PUBLIC "-//W3C//DTD SVG 20010904//EN"
 "http://www.w3.org/TR/2001/REC-SVG-20010904/DTD/svg10.dtd">
<svg version="1.0" xmlns="http://www.w3.org/2000/svg"
 width="200.000000pt" height="200.000000pt" viewBox="0 0 200.000000 200.000000"
 preserveAspectRatio="xMidYMid meet">
<metadata>
Created by potrace 1.10, written by Peter Selinger 2001-2011
</metadata>
<g transform="translate(0.000000,200.000000) scale(0.100000,-0.100000)"
fill="#000000" stroke="none">
<path d="M748 1306 c-205 -91 -234 -106 -209 -106 8 0 105 -41 217 -90 l204
-91 159 71 c87 38 162 70 165 70 16 0 4 -68 -14 -85 -24 -22 -26 -52 -4 -76
13 -14 14 -28 6 -78 l-9 -61 39 0 39 0 -6 38 c-4 20 -8 49 -11 63 -3 16 1 31
11 39 22 18 19 67 -5 80 -15 8 -20 21 -20 55 0 41 2 44 35 55 19 6 35 15 35
18 0 6 -361 169 -410 186 -8 3 -108 -37 -222 -88z m248 48 c22 -8 71 -30 109
-48 39 -18 100 -46 138 -62 69 -29 80 -40 50 -50 -26 -8 -127 -52 -208 -89
-128 -59 -129 -60 -177 -37 -183 87 -256 120 -275 126 -42 13 -39 15 132 91
33 15 75 33 93 41 29 14 95 43 98 44 1 0 19 -7 40 -16z m327 -306 c2 -7 0 -21
-5 -31 -7 -15 -12 -16 -24 -6 -21 17 -18 49 5 49 11 0 21 -6 24 -12z"/>
<path d="M730 1060 c-12 -22 -14 -93 -2 -86 4 2 28 0 54 -5 52 -11 131 -64
157 -103 l18 -26 31 39 c36 45 119 90 174 93 36 3 38 5 38 39 0 19 -6 43 -13
53 -12 16 -20 14 -120 -33 l-107 -50 -87 41 c-132 60 -131 60 -143 38z m96
-45 c33 -14 71 -32 86 -40 34 -20 51 -19 101 4 23 11 45 20 49 20 4 1 28 10
54 21 56 24 54 24 54 0 0 -14 -9 -21 -37 -26 -45 -8 -110 -44 -147 -81 l-26
-26 -41 38 c-41 37 -96 66 -134 70 -11 1 -23 3 -27 4 -11 2 -10 41 1 41 5 0
35 -11 67 -25z"/>
<path d="M651 775 c-19 -25 -26 -50 -33 -115 -2 -14 -10 -26 -20 -28 -14 -3
-16 3 -11 32 5 31 3 36 -15 36 -11 0 -30 -12 -41 -27 l-21 -28 6 28 c5 21 3
27 -10 27 -10 0 -29 -12 -43 -27 -23 -25 -24 -25 -14 -5 14 27 9 37 -14 29 -8
-4 -15 -17 -15 -30 0 -27 -24 -54 -34 -38 -3 5 -2 21 3 34 9 23 7 26 -20 32
-42 9 -79 -16 -79 -55 0 -31 33 -51 52 -32 7 7 16 7 28 -1 14 -8 22 -8 33 2
10 8 17 9 22 1 11 -17 24 -11 31 15 3 13 12 30 20 36 12 10 14 6 12 -21 -4
-46 18 -49 39 -6 20 44 35 47 27 6 -7 -34 16 -51 46 -32 13 8 26 8 49 -1 27
-10 33 -8 55 12 l25 24 20 -24 c16 -20 23 -22 39 -13 12 8 24 9 36 2 18 -10
66 13 66 32 0 15 -16 12 -30 -5 -18 -22 -30 -9 -20 25 8 27 6 29 -22 35 -22 5
-38 2 -59 -14 l-28 -21 -23 23 -24 24 20 27 c16 21 18 31 10 44 -17 27 -40 25
-63 -3z m23 -57 c-23 -44 -30 -20 -8 29 12 26 18 33 21 21 2 -9 -4 -32 -13
-50z m-314 -42 c0 -16 -21 -56 -30 -56 -14 0 -13 33 2 48 12 12 28 16 28 8z
m324 -18 c6 -25 -7 -44 -23 -34 -12 8 -15 39 -4 49 12 12 21 7 27 -15z m126 9
c0 -7 -6 -21 -13 -32 -18 -24 -32 -3 -17 25 12 23 30 27 30 7z"/>
<path d="M1267 782 c-22 -24 -37 -67 -37 -106 0 -26 -6 -35 -26 -45 -20 -9
-30 -9 -40 0 -16 13 -17 19 -4 39 8 13 11 12 24 -5 13 -18 15 -18 21 -3 15 39
-38 53 -70 18 -39 -43 13 -98 70 -72 18 8 25 8 29 -1 4 -8 9 -6 18 7 7 10 21
28 30 40 18 21 18 21 15 -14 -2 -38 -6 -36 68 -29 6 0 20 -3 32 -6 15 -5 28 0
42 14 23 23 41 27 41 11 0 -6 11 -16 25 -22 22 -10 30 -8 55 10 36 27 42 27
58 2 15 -25 43 -26 73 -1 31 25 19 38 -14 16 -37 -24 -42 -3 -12 43 29 45 43
106 26 116 -33 21 -73 -24 -86 -97 -8 -42 -15 -46 -33 -17 -16 26 -56 26 -83
-1 l-21 -21 -14 21 c-28 39 -85 22 -103 -31 -8 -22 -15 -28 -22 -21 -6 6 -6
18 1 37 15 40 -13 46 -51 10 -16 -15 -29 -23 -29 -18 0 6 14 23 31 40 39 36
54 71 38 90 -15 19 -33 18 -52 -4z m17 -58 c-24 -36 -30 -14 -8 28 13 24 19
29 22 16 2 -9 -5 -29 -14 -44z m378 -8 c-24 -54 -37 -60 -27 -13 13 59 25 81
36 70 8 -8 5 -25 -9 -57z m-243 -86 c-17 -11 -29 -3 -29 19 0 28 12 33 28 10
12 -18 12 -23 1 -29z m118 43 c-4 -3 -2 -13 5 -20 9 -11 9 -16 -2 -23 -18 -11
-30 -4 -30 19 0 20 8 31 23 31 6 0 7 -3 4 -7z"/>
<path d="M150 767 c-29 -14 -37 -48 -17 -65 8 -7 31 -18 52 -25 46 -16 55 -34
24 -46 -29 -10 -74 1 -74 19 0 20 -24 24 -31 6 -15 -39 57 -67 119 -47 63 21
59 61 -9 87 -58 22 -72 39 -44 54 29 15 66 5 73 -20 6 -24 25 -26 34 -3 15 40
-72 68 -127 40z"/>
<path d="M983 768 c-50 -24 -39 -57 30 -89 55 -25 63 -40 25 -50 -37 -9 -68 1
-68 22 0 22 -25 26 -33 5 -15 -39 67 -69 126 -47 58 22 46 66 -24 92 -46 17
-55 35 -28 52 24 15 70 0 67 -21 -4 -24 26 -22 30 2 8 40 -70 61 -125 34z"/>
<path d="M1716 768 c-14 -47 -14 -58 4 -58 10 0 20 10 24 23 9 35 7 47 -9 47
-9 0 -17 -6 -19 -12z"/>
<path d="M1777 659 c-32 -46 -30 -62 3 -29 11 11 25 18 30 15 14 -9 12 -23 -2
-21 -7 0 -14 -3 -15 -9 -3 -16 79 -8 96 9 19 20 7 33 -14 16 -13 -11 -18 -10
-30 6 -8 10 -13 27 -11 37 8 32 -28 17 -57 -24z"/>
</g>
</svg>
