<?xml version="1.0" standalone="no"?>
<!DOCTYPE svg PUBLIC "-//W3C//DTD SVG 20010904//EN"
 "http://www.w3.org/TR/2001/REC-SVG-20010904/DTD/svg10.dtd">
<svg version="1.0" xmlns="http://www.w3.org/2000/svg"
 width="200.000000pt" height="200.000000pt" viewBox="0 0 200.000000 200.000000"
 preserveAspectRatio="xMidYMid meet">
<metadata>
Created by potrace 1.10, written by Peter Selinger 2001-2011
</metadata>
<g transform="translate(0.000000,200.000000) scale(0.100000,-0.100000)"
fill="#000000" stroke="none">
<path d="M565 1394 c-237 -106 -438 -197 -447 -201 -13 -6 98 -59 405 -195
232 -104 436 -193 453 -199 28 -11 52 -2 364 137 183 82 337 151 342 152 4 2
8 -33 8 -77 0 -73 -2 -81 -22 -92 -39 -19 -58 -51 -58 -97 0 -36 6 -50 33 -77
l32 -32 -17 -114 c-9 -63 -17 -122 -17 -131 -1 -16 9 -18 79 -18 78 0 80 1 75
22 -2 13 -11 72 -20 131 l-15 109 29 27 c35 32 45 62 37 106 -6 30 -54 85 -74
85 -4 0 -6 43 -4 95 l3 96 57 25 c31 13 65 28 76 32 13 6 -97 59 -430 207
-246 110 -450 201 -453 201 -3 1 -199 -85 -436 -192z m542 116 c47 -22 87 -40
89 -40 2 0 39 -16 81 -36 43 -20 104 -47 135 -60 52 -22 112 -48 208 -91 19
-9 73 -34 119 -56 l85 -40 -47 -23 c-31 -16 -49 -33 -53 -49 -6 -23 -8 -23
-26 -11 -18 13 -25 12 -57 -5 -19 -10 -39 -19 -42 -19 -4 0 -41 -16 -83 -35
-42 -19 -78 -35 -81 -35 -2 -1 -40 -17 -82 -36 -43 -20 -91 -42 -108 -49 -16
-7 -64 -29 -105 -48 -148 -67 -124 -66 -262 -7 -68 29 -149 65 -181 81 -31 16
-60 29 -65 30 -4 0 -41 16 -82 36 -41 19 -104 46 -139 59 -36 13 -69 28 -75
33 -6 5 -40 21 -76 36 -36 15 -69 31 -74 36 -6 5 26 25 77 49 48 22 89 40 91
40 4 0 35 14 213 96 28 13 55 24 59 24 3 0 39 15 78 34 39 19 107 49 151 67
44 18 89 38 100 46 31 21 62 16 152 -27z m683 -651 c18 -33 11 -68 -21 -102
-31 -31 -31 -34 -25 -102 3 -38 9 -94 12 -122 l7 -53 -41 0 c-22 0 -43 4 -46
9 -3 4 -1 35 4 67 24 158 24 166 -9 198 -45 43 -43 92 6 139 l36 36 34 -26
c19 -14 38 -34 43 -44z"/>
<path d="M520 878 c-10 -24 -22 -73 -26 -110 l-7 -66 54 -7 c188 -24 341 -112
432 -248 l25 -37 21 34 c12 19 51 61 86 95 85 79 188 129 309 149 l91 15 -6
76 c-3 42 -13 91 -23 109 -17 32 -17 32 -48 16 -16 -9 -120 -55 -230 -104
l-199 -88 -192 85 c-105 47 -209 94 -230 104 l-38 20 -19 -43z m106 -29 c38
-17 102 -46 142 -65 40 -19 75 -34 78 -34 3 0 34 -13 69 -30 35 -16 74 -30 85
-30 12 0 53 15 93 34 88 42 351 156 360 156 7 0 14 -39 20 -108 4 -37 2 -43
-17 -46 -11 -2 -46 -9 -78 -14 -58 -11 -183 -65 -228 -98 -14 -11 -53 -48 -88
-83 l-63 -63 -57 59 c-102 105 -211 166 -337 187 l-70 12 -3 57 c-2 47 9 97
22 97 2 0 34 -14 72 -31z"/>
</g>
</svg>
